<?xml version="1.0" standalone="no"?>
<!DOCTYPE svg PUBLIC "-//W3C//DTD SVG 20010904//EN"
 "http://www.w3.org/TR/2001/REC-SVG-20010904/DTD/svg10.dtd">
<svg version="1.0" xmlns="http://www.w3.org/2000/svg"
 width="1100.000000pt" height="408.000000pt" viewBox="0 0 1100.000000 408.000000"
 preserveAspectRatio="xMidYMid meet">

<g transform="translate(0.000000,408.000000) scale(0.100000,-0.100000)"
fill="#000000" stroke="none">
<path d="M5911 4028 c-17 -29 -43 -79 -59 -111 -17 -31 -36 -65 -43 -74 -8 -9
-9 -14 -3 -10 6 3 11 0 11 -8 0 -18 -9 -19 -27 -2 -8 6 -4 -1 10 -17 14 -16
18 -26 10 -22 -14 7 -3 -3 50 -45 21 -17 22 -19 3 -9 -12 5 -25 15 -28 20 -3
6 -15 10 -27 10 -17 0 -18 -2 -8 -15 11 -13 10 -14 -11 -6 -26 10 -79 -14 -79
-35 0 -16 -87 -181 -115 -219 -13 -16 -45 -72 -71 -124 -77 -149 -94 -171
-128 -171 -12 -1 -61 -17 -111 -36 -49 -20 -124 -44 -165 -54 -85 -20 -111
-29 -195 -69 -33 -16 -71 -34 -85 -40 -14 -6 -52 -33 -85 -59 -76 -61 -140
-164 -149 -239 -6 -51 -6 -53 18 -53 49 0 495 142 507 162 7 10 99 17 99 7 0
-6 -62 -172 -112 -301 -19 -47 -39 -92 -45 -100 -19 -24 -105 -237 -99 -247 3
-5 -5 -31 -18 -58 -14 -26 -41 -111 -61 -188 -20 -77 -49 -183 -64 -235 -16
-52 -31 -109 -34 -126 -4 -18 -24 -72 -47 -122 -42 -94 -49 -120 -25 -87 14
17 15 15 9 -26 -7 -48 7 -89 29 -89 20 0 71 59 117 135 24 39 91 169 151 290
59 121 119 237 134 259 14 21 38 64 53 95 41 83 82 163 98 191 8 14 44 81 79
150 92 178 177 327 275 482 l84 135 66 17 c36 9 91 21 123 26 32 5 103 21 158
35 132 34 276 55 372 55 57 0 99 7 150 24 40 14 117 29 172 35 55 6 187 20
294 31 106 11 195 19 198 17 5 -6 -61 -47 -75 -47 -5 0 -39 -17 -74 -39 -34
-21 -90 -52 -123 -69 -33 -17 -80 -49 -105 -71 -25 -23 -65 -48 -90 -57 -25
-9 -58 -21 -74 -27 -16 -6 -55 -30 -87 -54 -33 -24 -65 -44 -72 -46 -6 -1 -50
-27 -97 -58 -47 -31 -128 -80 -180 -109 -52 -28 -124 -70 -159 -93 l-64 -41
59 -18 c32 -10 77 -21 99 -24 22 -3 73 -17 112 -30 40 -14 108 -29 151 -34 43
-6 109 -19 147 -31 39 -11 93 -22 120 -24 28 -2 88 -13 135 -24 47 -11 97 -21
112 -21 15 0 48 -11 73 -24 25 -14 67 -28 93 -31 26 -4 62 -11 80 -17 l34 -10
-23 -24 c-12 -13 -25 -22 -28 -19 -4 2 -35 -20 -70 -50 -79 -67 -147 -101
-366 -182 -66 -24 -124 -50 -130 -57 -5 -7 -20 -18 -32 -24 -26 -14 -77 -16
-68 -3 6 10 -27 2 -80 -19 -16 -6 -37 -13 -45 -15 -8 -2 -35 -11 -60 -20 -154
-54 -301 -94 -332 -89 -24 4 -55 -2 -99 -19 -35 -14 -86 -30 -114 -37 -27 -6
-83 -25 -124 -41 -41 -16 -80 -28 -88 -25 -7 3 -48 -6 -90 -19 -43 -14 -85
-25 -94 -25 -15 0 -47 -13 -119 -48 -74 -36 -37 -88 65 -90 53 -1 299 24 350
35 17 4 53 6 81 4 28 -1 98 5 155 13 57 9 149 21 204 26 171 17 253 29 363 55
59 13 116 24 127 23 31 -2 125 23 125 33 0 5 14 9 30 9 17 0 41 7 53 14 20 14
60 23 192 45 71 12 135 31 135 39 0 12 93 46 132 48 38 2 198 71 198 85 0 4
27 24 59 44 92 55 158 137 196 240 7 19 8 19 14 2 5 -15 11 -11 30 23 12 22
20 48 17 57 -4 8 -1 42 6 75 11 52 10 63 -5 91 -10 18 -25 54 -35 82 -20 55
-77 104 -122 105 -14 0 -38 7 -54 15 -15 8 -34 15 -41 15 -7 0 -18 6 -24 14
-6 7 -37 17 -69 20 -31 4 -86 11 -122 16 -69 9 -251 28 -285 30 -20 1 -20 1
-1 15 11 8 28 15 38 15 10 0 18 4 18 9 0 5 36 21 80 35 45 14 93 34 107 46 14
11 30 20 35 20 4 0 25 11 46 25 20 13 68 34 106 45 51 16 81 33 117 67 27 25
49 41 49 34 0 -20 14 -11 40 24 14 19 33 37 43 41 10 3 29 24 44 47 14 23 39
57 55 75 23 27 26 37 18 53 -8 14 -7 28 6 54 14 30 15 42 5 81 -27 105 -81
178 -157 210 -18 8 -36 19 -39 24 -4 6 -19 10 -33 9 -15 -2 -38 4 -52 13 -16
10 -60 19 -118 24 -81 6 -95 4 -112 -11 -17 -15 -31 -17 -92 -12 -60 5 -80 3
-113 -12 -26 -13 -42 -16 -46 -9 -4 6 -15 7 -25 4 -23 -7 -100 -17 -174 -22
-30 -2 -98 -10 -150 -19 -52 -8 -142 -19 -200 -25 -127 -13 -399 -66 -417 -82
-7 -6 -13 -8 -13 -5 0 3 -35 -7 -77 -22 -134 -49 -128 -50 -88 11 18 29 44 65
57 81 52 62 136 231 144 291 13 90 -53 218 -124 244 -34 12 -137 42 -145 42
-3 0 -19 -24 -36 -52z m-55 -384 c18 -14 18 -15 -6 -8 -14 3 -32 10 -40 15
-12 7 -11 8 6 9 11 0 29 -7 40 -16z m84 -34 c0 -13 -11 -13 -30 0 -12 8 -11
10 8 10 12 0 22 -4 22 -10z m1637 -1026 c-3 -3 -12 -4 -19 -1 -8 3 -5 6 6 6
11 1 17 -2 13 -5z"/>
<path d="M4282 3964 c-109 -106 -333 -355 -328 -363 4 -6 -3 -15 -16 -22 -35
-19 -118 -100 -144 -141 -13 -21 -38 -45 -55 -53 -17 -9 -36 -29 -42 -44 -14
-33 -81 -95 -70 -64 10 27 -17 1 -330 -322 -155 -159 -300 -306 -324 -325 -32
-26 -39 -37 -31 -47 8 -10 6 -13 -6 -13 -9 0 -39 -20 -65 -45 -26 -25 -53 -45
-60 -45 -6 0 -17 -12 -24 -27 -6 -16 -17 -32 -24 -36 -7 -4 -13 -16 -13 -25 0
-11 -12 -21 -32 -27 -24 -8 -34 -18 -40 -42 -9 -34 -49 -66 -56 -44 -2 6 -8
11 -13 11 -5 0 -106 -87 -225 -192 -119 -106 -223 -197 -231 -202 -13 -7 -14
0 -7 55 5 35 8 84 6 109 -3 55 16 191 29 206 5 6 14 56 19 110 5 55 24 178 41
274 17 96 31 185 31 198 -1 12 -1 28 -2 35 -1 26 18 125 28 143 18 33 34 293
21 339 -31 110 -171 301 -289 395 l-38 30 -27 -43 c-25 -37 -109 -143 -217
-273 -21 -26 -35 -51 -31 -59 3 -9 -1 -15 -11 -15 -16 0 -39 -33 -30 -43 8 -7
-46 -77 -117 -152 -31 -33 -107 -130 -167 -215 -61 -85 -129 -177 -150 -205
-71 -92 -226 -309 -305 -425 -126 -186 -167 -243 -206 -285 -62 -66 -186 -235
-338 -465 l-144 -215 28 -22 c16 -13 34 -23 41 -23 6 0 12 -4 12 -10 0 -6 -9
-6 -26 0 -26 10 -89 8 -100 -3 -4 -3 9 -10 27 -16 22 -6 27 -10 13 -10 -11 -1
-31 -15 -43 -32 -17 -23 -29 -30 -46 -26 -31 5 -31 5 -94 -81 -63 -85 -61 -90
35 -122 112 -38 240 -27 361 31 136 65 385 340 716 791 71 96 144 190 164 208
19 18 57 64 83 102 27 38 52 69 55 68 4 -1 30 36 58 82 44 72 114 174 197 286
13 17 25 30 27 28 2 -2 -1 -32 -6 -67 -6 -35 -12 -93 -15 -129 -7 -75 -32
-276 -46 -365 -5 -33 -7 -91 -3 -128 4 -47 3 -67 -6 -67 -28 0 4 -152 55 -251
13 -26 44 -67 68 -92 25 -25 41 -47 35 -49 -16 -5 140 -103 195 -121 27 -10
76 -17 107 -17 91 0 151 28 264 125 161 138 177 152 235 207 31 29 73 61 95
71 26 12 47 31 60 55 12 22 55 64 105 102 126 97 547 506 598 581 17 26 54 63
81 83 26 20 70 67 95 105 50 73 93 120 80 88 -3 -9 -4 -17 -1 -17 2 0 78 78
168 173 90 94 167 173 170 175 4 2 -8 -39 -27 -90 -82 -219 -156 -500 -200
-759 -34 -203 -45 -503 -20 -563 9 -21 16 -53 16 -71 0 -18 9 -44 20 -57 11
-14 36 -58 56 -97 44 -87 105 -156 175 -198 61 -37 169 -68 200 -58 20 7 19
10 -19 49 -83 84 -112 182 -116 396 0 36 -5 68 -9 71 -5 3 -2 26 6 50 8 24 18
78 21 119 12 130 36 248 67 333 17 45 32 93 34 107 2 14 13 48 23 75 11 28 24
64 29 80 5 17 14 29 19 28 5 -1 34 62 63 140 29 78 69 171 87 205 19 35 57
119 85 185 28 67 59 131 70 143 24 26 63 124 85 215 22 92 15 171 -22 239 -29
54 -142 167 -237 240 -51 38 -60 42 -82 32 -24 -11 -25 -10 -19 13 9 35 -17
33 -61 -6 -36 -32 -39 -21 -7 29 11 16 12 26 4 34 -7 7 -22 -1 -50 -28z"/>
<path d="M9131 3761 c-17 -33 -41 -70 -52 -83 -11 -13 -45 -69 -74 -126 -30
-56 -63 -115 -73 -130 -10 -15 -70 -117 -132 -227 -62 -110 -142 -249 -178
-309 -36 -61 -78 -141 -93 -179 -14 -38 -29 -63 -31 -56 -6 16 -55 -76 -73
-136 -9 -27 -18 -39 -28 -37 -10 1 -19 -10 -27 -32 -6 -19 -23 -52 -37 -73
-14 -20 -26 -42 -27 -48 -1 -5 -13 -28 -27 -50 -14 -22 -45 -78 -69 -125 -24
-47 -47 -92 -52 -100 -4 -8 -11 -22 -15 -30 -4 -8 -10 -17 -14 -20 -7 -5 -20
-29 -101 -189 -78 -154 -84 -250 -17 -312 78 -73 217 -66 679 33 80 17 161 32
180 34 45 4 169 34 194 46 10 6 28 12 40 13 61 10 1068 271 1276 331 47 14
146 33 220 44 174 25 186 28 172 42 -7 7 -20 7 -43 -1 -17 -6 -39 -11 -48 -11
-9 0 51 23 134 51 82 28 155 55 162 61 22 18 15 38 -14 38 -32 0 -210 -24
-333 -45 -47 -8 -134 -19 -194 -25 -60 -6 -112 -13 -115 -15 -3 -1 -78 -15
-166 -30 -88 -14 -206 -35 -263 -45 -56 -11 -119 -22 -140 -24 -56 -7 -163
-25 -307 -51 -71 -13 -161 -28 -200 -34 -38 -5 -137 -21 -220 -34 -353 -59
-547 -88 -551 -84 -2 2 142 248 321 546 359 599 360 601 371 656 4 21 13 50
20 64 13 25 14 25 14 4 0 -43 19 -23 26 27 4 32 11 50 20 50 8 0 14 11 15 28
l1 27 7 -25 7 -25 8 24 c5 12 18 38 31 57 13 19 26 53 30 75 5 27 11 39 20 35
23 -8 75 139 75 213 0 94 -67 189 -167 234 -105 47 -105 47 -142 -22z m-68
-149 c-14 -34 -28 -60 -30 -58 -2 2 8 31 23 65 15 34 28 60 30 58 2 -2 -8 -31
-23 -65z"/>
<path d="M7638 717 c-11 -4 -23 -5 -28 -2 -7 4 -614 -10 -845 -20 -60 -2 -256
-9 -435 -15 -179 -6 -379 -15 -445 -20 -66 -6 -196 -15 -290 -20 -93 -6 -280
-17 -415 -26 -135 -8 -315 -19 -400 -24 -85 -5 -204 -13 -265 -19 -60 -6 -211
-18 -335 -26 -124 -9 -283 -22 -355 -30 -71 -7 -175 -16 -230 -20 -55 -3 -149
-13 -210 -21 -60 -8 -182 -21 -270 -29 -88 -9 -239 -24 -335 -35 -96 -11 -233
-24 -305 -30 -71 -5 -161 -14 -200 -20 -38 -5 -132 -17 -209 -25 -76 -9 -149
-21 -161 -28 -23 -12 -217 -184 -223 -197 -3 -8 201 -30 282 -30 32 0 200 -13
375 -30 174 -16 341 -29 371 -29 30 1 111 -4 180 -10 69 -7 139 -10 155 -7 17
3 98 17 180 31 83 15 164 29 180 32 17 2 111 18 210 35 189 32 233 39 380 60
l90 13 -60 6 -60 6 52 1 c67 3 81 22 16 23 l-48 2 45 6 c25 4 55 12 67 19 15
8 97 12 277 12 170 0 288 5 353 14 54 8 170 22 258 31 88 9 178 23 199 31 24
9 53 13 75 9 20 -3 128 6 241 20 113 15 243 28 290 30 47 2 144 11 215 20 72
9 159 19 195 20 36 2 112 8 169 14 57 6 138 11 180 11 42 0 144 6 226 14 83 8
233 20 335 26 102 5 244 15 315 20 72 6 233 17 360 26 126 9 233 18 237 20 4
3 81 10 170 15 90 5 187 12 217 15 38 4 51 3 47 -5 -5 -8 0 -8 19 -1 15 6 53
10 85 10 33 0 139 7 237 16 98 9 212 17 253 19 215 8 285 21 274 49 -8 21 -47
28 -165 27 -58 -1 -141 4 -183 9 -57 7 -865 14 -1036 9 -8 0 -75 1 -148 3 -73
2 -142 0 -154 -5z m-3681 -473 c-3 -3 -12 -4 -19 -1 -8 3 -5 6 6 6 11 1 17 -2
13 -5z m-27 -24 c0 -5 -2 -10 -4 -10 -3 0 -8 5 -11 10 -3 6 -1 10 4 10 6 0 11
-4 11 -10z"/>
</g>
</svg>
